<svg aria-hidden="true" style="position: absolute; width: 0; height: 0; overflow: hidden;" version="1.1" xmlns="http://www.w3.org/2000/svg" xmlns:xlink="http://www.w3.org/1999/xlink">
<defs>
<symbol id="icon-search" viewBox="0 0 32 32">
<path d="M23.865 18.767c0.215-0.388 0.41-0.788 0.585-1.2 0.659-1.558 0.993-3.212 0.993-4.915s-0.334-3.357-0.993-4.915c-0.636-1.504-1.546-2.854-2.705-4.012s-2.509-2.069-4.012-2.705c-1.558-0.659-3.212-0.993-4.915-0.993s-3.357 0.334-4.915 0.993c-1.504 0.636-2.854 1.546-4.012 2.705s-2.069 2.509-2.705 4.012c-0.659 1.558-0.993 3.212-0.993 4.915s0.334 3.357 0.993 4.915c0.636 1.504 1.546 2.854 2.705 4.012s2.509 2.069 4.012 2.705c1.558 0.659 3.212 0.993 4.915 0.993s3.357-0.334 4.915-0.993c0.261-0.11 0.517-0.23 0.769-0.357l7.074 7.074c0.627 0.627 1.46 0.972 2.346 0.972s1.719-0.345 2.346-0.972l0.57-0.57c1.294-1.294 1.294-3.398 0-4.692l-6.972-6.972zM18.856 21.011c-0.647 0.468-1.351 0.863-2.098 1.173-1.214 0.502-2.545 0.78-3.94 0.78-5.695 0-10.312-4.617-10.312-10.312s4.617-10.312 10.312-10.312 10.312 4.617 10.312 10.312c0 1.573-0.353 3.063-0.983 4.397-0.341 0.722-0.763 1.398-1.255 2.016-0.587 0.738-1.272 1.393-2.036 1.946zM29.202 28.796l-0.57 0.57c-0.196 0.196-0.453 0.294-0.71 0.294s-0.514-0.098-0.71-0.294l-6.701-6.701c0.433-0.333 0.845-0.695 1.236-1.085 0.279-0.279 0.543-0.569 0.792-0.869l6.665 6.665c0.392 0.392 0.392 1.029 0 1.421z"></path>
<path d="M27.921 32c-0.893 0-1.733-0.348-2.365-0.98l-7.060-7.060c-0.251 0.126-0.504 0.243-0.753 0.348-1.561 0.66-3.218 0.995-4.925 0.995s-3.364-0.335-4.925-0.995c-1.507-0.637-2.86-1.549-4.021-2.71s-2.073-2.514-2.71-4.021c-0.66-1.561-0.995-3.218-0.995-4.925s0.335-3.364 0.995-4.925c0.637-1.507 1.549-2.86 2.71-4.021s2.514-2.073 4.021-2.71c1.561-0.66 3.218-0.995 4.925-0.995s3.364 0.335 4.925 0.995c1.507 0.637 2.86 1.549 4.021 2.71s2.073 2.514 2.71 4.021c0.66 1.561 0.995 3.218 0.995 4.925s-0.335 3.364-0.995 4.925c-0.169 0.399-0.363 0.798-0.576 1.185l6.958 6.958c1.304 1.304 1.304 3.426-0 4.73l-0.57 0.57c-0.632 0.632-1.472 0.98-2.365 0.98zM18.507 23.895l7.088 7.088c0.622 0.622 1.448 0.964 2.327 0.964s1.705-0.342 2.327-0.964l0.57-0.57c1.283-1.283 1.283-3.371 0-4.654l-6.987-6.987 0.010-0.018c0.216-0.391 0.413-0.794 0.583-1.198 0.658-1.555 0.991-3.205 0.991-4.904s-0.333-3.35-0.991-4.904c-0.635-1.5-1.543-2.848-2.699-4.004s-2.503-2.064-4.004-2.699c-1.555-0.657-3.205-0.991-4.904-0.991s-3.35 0.333-4.904 0.991c-1.5 0.635-2.847 1.543-4.004 2.699s-2.064 2.503-2.699 4.004c-0.658 1.555-0.991 3.205-0.991 4.904s0.333 3.35 0.991 4.904c0.635 1.5 1.543 2.847 2.699 4.004s2.503 2.064 4.004 2.699c1.555 0.658 3.205 0.991 4.904 0.991s3.35-0.333 4.904-0.991c0.253-0.107 0.512-0.227 0.767-0.356l0.017-0.009zM27.921 29.687c-0.276 0-0.535-0.107-0.73-0.302l-6.723-6.723 0.024-0.019c0.434-0.334 0.849-0.698 1.233-1.083 0.274-0.274 0.54-0.566 0.791-0.867l0.019-0.023 6.686 6.686c0.402 0.402 0.402 1.057 0 1.459l-0.57 0.57c-0.195 0.195-0.454 0.302-0.73 0.302zM20.55 22.667l6.68 6.68c0.185 0.185 0.43 0.286 0.691 0.286s0.507-0.102 0.691-0.286l0.57-0.57c0.381-0.381 0.381-1.002 0-1.383l-6.644-6.644c-0.246 0.294-0.506 0.58-0.775 0.848-0.379 0.379-0.787 0.738-1.214 1.069zM12.818 22.991c-5.701 0-10.339-4.638-10.339-10.339s4.638-10.339 10.339-10.339 10.339 4.638 10.339 10.339c0 1.541-0.331 3.024-0.985 4.409-0.339 0.718-0.762 1.398-1.258 2.022-0.589 0.74-1.276 1.396-2.042 1.951-0.653 0.473-1.361 0.868-2.104 1.176-1.254 0.519-2.583 0.782-3.95 0.782zM12.818 2.367c-5.671 0-10.285 4.614-10.285 10.285s4.614 10.285 10.285 10.285c1.36 0 2.682-0.262 3.93-0.778 0.739-0.306 1.443-0.699 2.093-1.17 0.762-0.551 1.445-1.204 2.031-1.941 0.493-0.62 0.914-1.296 1.251-2.011 0.65-1.377 0.98-2.853 0.98-4.386 0-5.671-4.614-10.285-10.285-10.285z"></path>
</symbol>
<symbol id="icon-film" viewBox="0 0 32 32">
<path fill="none" stroke="#818181" style="stroke: var(--color1, #818181)" stroke-linejoin="round" stroke-linecap="round" stroke-miterlimit="4" stroke-width="2.6667" d="M26.427 2.667h-20.853c-1.605 0-2.907 1.301-2.907 2.907v20.853c0 1.605 1.301 2.907 2.907 2.907h20.853c1.605 0 2.907-1.301 2.907-2.907v-20.853c0-1.605-1.301-2.907-2.907-2.907z"></path>
<path fill="none" stroke="#818181" style="stroke: var(--color1, #818181)" stroke-linejoin="round" stroke-linecap="round" stroke-miterlimit="4" stroke-width="2.6667" d="M9.333 2.667v26.667"></path>
<path fill="none" stroke="#818181" style="stroke: var(--color1, #818181)" stroke-linejoin="round" stroke-linecap="round" stroke-miterlimit="4" stroke-width="2.6667" d="M22.667 2.667v26.667"></path>
<path fill="none" stroke="#818181" style="stroke: var(--color1, #818181)" stroke-linejoin="round" stroke-linecap="round" stroke-miterlimit="4" stroke-width="2.6667" d="M2.667 16h26.667"></path>
<path fill="none" stroke="#818181" style="stroke: var(--color1, #818181)" stroke-linejoin="round" stroke-linecap="round" stroke-miterlimit="4" stroke-width="2.6667" d="M2.667 9.333h6.667"></path>
<path fill="none" stroke="#818181" style="stroke: var(--color1, #818181)" stroke-linejoin="round" stroke-linecap="round" stroke-miterlimit="4" stroke-width="2.6667" d="M2.667 22.667h6.667"></path>
<path fill="none" stroke="#818181" style="stroke: var(--color1, #818181)" stroke-linejoin="round" stroke-linecap="round" stroke-miterlimit="4" stroke-width="2.6667" d="M22.667 22.667h6.667"></path>
<path fill="none" stroke="#818181" style="stroke: var(--color1, #818181)" stroke-linejoin="round" stroke-linecap="round" stroke-miterlimit="4" stroke-width="2.6667" d="M22.667 9.333h6.667"></path>
</symbol>
</defs>
</svg>
